<svg width="43" height="45" viewBox="0 0 43 45" fill="none" xmlns="http://www.w3.org/2000/svg">
<g clip-path="url(#clip0_1_206)">
<path d="M14.2899 8.47876H6.59644C5.88443 8.47876 5.30737 9.05582 5.30737 9.76782C5.30737 10.4798 5.88443 11.0569 6.59644 11.0569H14.2899C15.0015 11.0569 15.5789 10.4798 15.5789 9.76782C15.5789 9.05582 15.0015 8.47876 14.2899 8.47876Z" fill="white"/>
<path d="M14.2899 13.6353H6.59644C5.88443 13.6353 5.30737 14.2123 5.30737 14.9243C5.30737 15.6363 5.88443 16.2134 6.59644 16.2134H14.2899C15.0015 16.2134 15.5789 15.6363 15.5789 14.9243C15.5789 14.2123 15.0015 13.6353 14.2899 13.6353Z" fill="white"/>
<path d="M14.2899 18.792H6.59644C5.88443 18.792 5.30737 19.369 5.30737 20.0811C5.30737 20.7931 5.88443 21.3701 6.59644 21.3701H14.2899C15.0015 21.3701 15.5789 20.7931 15.5789 20.0811C15.5789 19.369 15.0015 18.792 14.2899 18.792Z" fill="white"/>
<path d="M14.2899 23.9485H6.59644C5.88443 23.9485 5.30737 24.5255 5.30737 25.2375C5.30737 25.9496 5.88443 26.5266 6.59644 26.5266H14.2899C15.0015 26.5266 15.5789 25.9496 15.5789 25.2375C15.5789 24.5255 15.0015 23.9485 14.2899 23.9485Z" fill="white"/>
<path d="M14.2899 29.1914H6.59644C5.88443 29.1914 5.30737 29.7688 5.30737 30.4805C5.30737 31.1925 5.88443 31.7695 6.59644 31.7695H14.2899C15.0015 31.7695 15.5789 31.1925 15.5789 30.4805C15.5789 29.7688 15.0015 29.1914 14.2899 29.1914Z" fill="white"/>
<path d="M18.6189 11.0569H26.3123C27.0243 11.0569 27.6014 10.4798 27.6014 9.76782C27.6014 9.05582 27.0243 8.47876 26.3123 8.47876H18.6189C17.9072 8.47876 17.3298 9.05582 17.3298 9.76782C17.3298 10.4798 17.9072 11.0569 18.6189 11.0569Z" fill="white"/>
<path d="M18.6189 16.2134H26.3123C27.0243 16.2134 27.6014 15.6363 27.6014 14.9243C27.6014 14.2123 27.0243 13.6353 26.3123 13.6353H18.6189C17.9072 13.6353 17.3298 14.2123 17.3298 14.9243C17.3298 15.6363 17.9072 16.2134 18.6189 16.2134Z" fill="white"/>
<path d="M23.6133 20.0811C23.6133 19.369 23.0363 18.792 22.3243 18.792H18.6189C17.9072 18.792 17.3298 19.369 17.3298 20.0811C17.3298 20.7931 17.9072 21.3701 18.6189 21.3701H22.3243C23.0363 21.3701 23.6133 20.7931 23.6133 20.0811Z" fill="white"/>
<path d="M35.8248 29.7355C35.2696 29.2901 34.4586 29.379 34.0127 29.9343L30.6927 34.0734L28.6373 32.5842C28.0609 32.1663 27.2546 32.2952 26.837 32.8716C26.4194 33.4483 26.5483 34.2543 27.1246 34.6719L30.1738 36.8811C30.402 37.0463 30.6666 37.1265 30.9294 37.1265C31.3077 37.1265 31.6817 36.9603 31.9355 36.6438L36.0239 31.5476C36.4694 30.9924 36.3804 30.181 35.8248 29.7355Z" fill="white"/>
<path d="M39.0831 25.7784C37.404 24.0697 35.2465 22.9928 32.9087 22.6756V5.1937C32.9087 2.33124 30.5797 0.00219727 27.7172 0.00219727H5.19183C2.32904 0.00219727 0 2.33124 0 5.1937V35.0546C0 37.9174 2.32904 40.2465 5.1915 40.2465H23.3085C25.3472 42.6413 28.2785 44.0022 31.4498 44.0022C37.3529 44.0022 42.1554 39.1964 42.1554 33.2892C42.1554 30.4613 41.0644 27.7939 39.0831 25.7784ZM2.57812 35.0546V5.1937C2.57812 3.7529 3.7507 2.58032 5.19183 2.58032H27.7172C29.1583 2.58032 30.3306 3.7529 30.3306 5.1937V22.6346C24.9514 23.1963 20.7442 27.76 20.7442 33.2892C20.7442 34.8217 21.0638 36.3034 21.6767 37.668H5.19183C3.7507 37.668 2.57812 36.4958 2.57812 35.0546ZM31.4498 41.4241C28.8753 41.4241 26.5087 40.2421 24.9561 38.1816C23.8873 36.7626 23.322 35.0711 23.322 33.2892C23.322 28.8037 26.9683 25.1544 31.4498 25.1544C31.4921 25.1544 31.5347 25.155 31.577 25.1557L31.5968 25.156C33.7362 25.194 35.7419 26.0567 37.2445 27.5854C38.7487 29.1159 39.5772 31.1418 39.5772 33.2892C39.5772 37.7747 35.9313 41.4241 31.4498 41.4241Z" fill="white"/>
</g>
<defs>
<clipPath id="clip0_1_206">
<rect width="42.1953" height="44" fill="white" transform="translate(0 0.00219727)"/>
</clipPath>
</defs>
</svg>
