<svg width="48" height="49" viewBox="0 0 48 49" fill="none" xmlns="http://www.w3.org/2000/svg">
<g clip-path="url(#clip0_1_185)">
<path d="M28 18.0022H31V20.0022H30V31.0022H31V33.0022H9V31.0022H10V20.0022H9V18.0022H12V16.0022C12 15.737 12.1054 15.4826 12.2929 15.2951C12.4804 15.1076 12.7348 15.0022 13 15.0022H27C27.2652 15.0022 27.5196 15.1076 27.7071 15.2951C27.8946 15.4826 28 15.737 28 16.0022V18.0022ZM28 20.0022H12V31.0022H15V24.0022H17V31.0022H19V24.0022H21V31.0022H23V24.0022H25V31.0022H28V20.0022ZM14 17.0022V18.0022H26V17.0022H14Z" fill="black"/>
</g>
<defs>
<clipPath id="clip0_1_185">
<rect width="48" height="48" fill="white" transform="translate(0 0.00219727)"/>
</clipPath>
</defs>
</svg>
