<svg width="10" height="9" viewBox="0 0 10 9" fill="none" xmlns="http://www.w3.org/2000/svg">
<path d="M2.27008 9V2.92771H0.126472V9H2.27008ZM1.19855 2.09815C1.94607 2.09815 2.41136 1.63187 2.41136 1.04917C2.39743 0.453338 1.94609 0 1.21274 0C0.479495 0 0 0.453347 0 1.04917C0 1.6319 0.465176 2.09815 1.18456 2.09815H1.19849H1.19855ZM3.45656 9H5.60017V5.60894C5.60017 5.42745 5.61409 5.24616 5.6707 5.11642C5.82567 4.75382 6.17837 4.37827 6.77053 4.37827C7.54621 4.37827 7.85653 4.93512 7.85653 5.75142V8.99995H10V5.51816C10 3.653 8.94246 2.78516 7.53209 2.78516C6.3757 2.78516 5.86797 3.39375 5.5859 3.80827H5.60021V2.92759H3.45661C3.48474 3.49738 3.45661 8.99987 3.45661 8.99987L3.45656 9Z" fill="#4B4B4B"/>
</svg>
