<svg width="10" height="9" viewBox="0 0 10 9" fill="none" xmlns="http://www.w3.org/2000/svg">
<path d="M8.97262 2.24295C8.97924 2.34162 8.97924 2.43973 8.97924 2.53784C8.97924 5.54028 6.91685 9 3.14777 9C1.98657 9 0.907796 8.6273 0 7.98002C0.164869 8.00088 0.323631 8.00821 0.495115 8.00821C1.41766 8.01068 2.31409 7.66885 3.03989 7.03784C2.61216 7.02926 2.19752 6.87289 1.85388 6.59057C1.51023 6.30824 1.25472 5.91405 1.12304 5.46304C1.24975 5.4839 1.37696 5.498 1.51028 5.498C1.69398 5.498 1.87869 5.4698 2.05017 5.42075C1.58598 5.3169 1.16857 5.0381 0.868929 4.63176C0.569287 4.22542 0.405909 3.71663 0.406574 3.19189V3.1637C0.679829 3.33229 0.996845 3.43773 1.33269 3.45182C1.05134 3.24466 0.820639 2.96355 0.661174 2.63357C0.501709 2.3036 0.418437 1.93501 0.418787 1.56071C0.418787 1.13896 0.520049 0.752162 0.697639 0.414986C1.21267 1.11698 1.85503 1.69127 2.58311 2.10067C3.3112 2.51007 4.10877 2.74545 4.92418 2.79157C4.89263 2.62242 4.87329 2.44706 4.87329 2.27114C4.87316 1.97285 4.92609 1.67745 5.02904 1.40184C5.132 1.12622 5.28297 0.875797 5.47333 0.664872C5.66368 0.453948 5.88969 0.286662 6.13843 0.172579C6.38717 0.0584958 6.65376 -0.00014794 6.92296 2.80264e-07C7.51323 2.80264e-07 8.046 0.274026 8.42052 0.717203C8.87939 0.61888 9.31943 0.433267 9.72115 0.168588C9.56819 0.693419 9.24779 1.13845 8.81997 1.42031C9.22694 1.36888 9.62469 1.25029 10 1.06848C9.71969 1.52129 9.37234 1.91838 8.97262 2.24295Z" fill="#4B4B4B"/>
</svg>
